<?xml version="1.0" encoding="utf-8"?>
<!-- Generator: Adobe Illustrator 24.3.0, SVG Export Plug-In . SVG Version: 6.00 Build 0)  -->
<svg version="1.1" id="Layer_1" xmlns="http://www.w3.org/2000/svg" xmlns:xlink="http://www.w3.org/1999/xlink" x="0px" y="0px"
	 viewBox="0 0 1190.6 841.9" style="enable-background:new 0 0 1190.6 841.9;" xml:space="preserve">
<style type="text/css">
	.st0{fill:url(#SVGID_1_);}
	.st1{fill:url(#SVGID_2_);}
	.st2{fill:url(#SVGID_3_);}
	.st3{fill:url(#SVGID_4_);}
	.st4{fill:url(#SVGID_5_);}
	.st5{fill:url(#SVGID_6_);}
	.st6{fill:url(#SVGID_7_);}
	.st7{fill:url(#SVGID_8_);}
	.st8{fill:url(#SVGID_9_);}
	.st9{fill:url(#SVGID_10_);}
	.st10{fill:url(#SVGID_11_);}
	.st11{fill:url(#SVGID_12_);}
	.st12{fill:url(#SVGID_13_);}
	.st13{fill:#FFFFFF;}
	.st14{fill:url(#SVGID_14_);}
	.st15{fill:url(#SVGID_15_);}
	.st16{fill:url(#SVGID_16_);}
	.st17{fill:url(#SVGID_17_);}
	.st18{fill:url(#SVGID_18_);}
	.st19{fill:url(#SVGID_19_);}
	.st20{fill:#D1D3D4;}
</style>
<g>
	<g>
		
			<radialGradient id="SVGID_1_" cx="594.9395" cy="539.4634" r="383.2111" gradientTransform="matrix(0.5968 0 0 0.5989 240.2349 97.874)" gradientUnits="userSpaceOnUse">
			<stop  offset="0.5695" style="stop-color:#EBEDEF"/>
			<stop  offset="0.8824" style="stop-color:#8B959A"/>
		</radialGradient>
		<path class="st0" d="M891.8,353.5H705.6c-22.7-37.3-63.6-62.2-110.3-62.2s-87.6,24.9-110.3,62.2H298.8c0,0,67.6,98.6,154.8,155.3
			h46.7c23.6,25.7,57.4,41.8,95,41.8c37.6,0,71.4-16.1,95-41.8h46.7C827.2,449.5,891.8,353.5,891.8,353.5z"/>
		<linearGradient id="SVGID_2_" gradientUnits="userSpaceOnUse" x1="595.275" y1="554.5817" x2="595.275" y2="287.3082">
			<stop  offset="0.1176" style="stop-color:#414042"/>
			<stop  offset="0.4305" style="stop-color:#808285"/>
		</linearGradient>
		<path class="st1" d="M595.3,291.3c46.7,0,87.6,24.9,110.3,62.2h186.2c0,0-64.7,96.1-154.8,155.3h-46.7
			c-23.6,25.7-57.4,41.8-95,41.8c-37.6,0-71.4-16.1-95-41.8h-46.7c-87.1-56.7-154.8-155.3-154.8-155.3H485
			C507.7,316.2,548.6,291.3,595.3,291.3 M595.3,287.3c-23.2,0-46.1,6.1-66.2,17.6c-18.8,10.8-34.8,26.2-46.4,44.5h-184h-7.6l4.3,6.3
			c0.2,0.2,17.4,25.2,45,56.8c25.5,29.1,65.5,70.1,110.9,99.6l1,0.6h1.2h45c12.1,12.8,26.3,23,42.4,30.2
			c17.1,7.7,35.4,11.6,54.4,11.6c18.9,0,37.2-3.9,54.4-11.6c16-7.2,30.3-17.4,42.4-30.2h45h1.2l1-0.7c46.9-30.8,86.8-71.7,112-100.6
			c27.3-31.2,43.7-55.6,43.9-55.8l4.2-6.2h-7.5h-184c-11.6-18.4-27.6-33.7-46.4-44.5C641.4,293.4,618.6,287.3,595.3,287.3
			L595.3,287.3z"/>
	</g>
	<g>
		<path d="M595.3,315.3c57.7,0,104.6,47.1,104.6,104.9S653,525.2,595.3,525.2s-104.6-47.1-104.6-104.9S537.7,315.3,595.3,315.3
			 M595.3,308.1c-61.7,0-111.7,50.2-111.7,112.1s50,112.1,111.7,112.1S707,482.2,707,420.2S657,308.1,595.3,308.1L595.3,308.1z"/>
	</g>
	
		<radialGradient id="SVGID_3_" cx="572.2729" cy="476.9637" r="176.4174" gradientTransform="matrix(0.5968 0 0 0.5989 240.2349 97.874)" gradientUnits="userSpaceOnUse">
		<stop  offset="4.278075e-02" style="stop-color:#53575B"/>
		<stop  offset="1" style="stop-color:#000000"/>
	</radialGradient>
	<ellipse class="st2" cx="595.3" cy="420.2" rx="97.8" ry="98.1"/>
	<linearGradient id="SVGID_4_" gradientUnits="userSpaceOnUse" x1="731.2827" y1="453.0161" x2="762.1697" y2="491.1584">
		<stop  offset="0.1872" style="stop-color:#EBEDEF"/>
		<stop  offset="0.8021" style="stop-color:#8B959A"/>
	</linearGradient>
	<path class="st3" d="M706.2,486.8h61.3c8.9-7.1,17.6-14.5,25.9-22h-76.7C713.8,472.6,710.3,479.9,706.2,486.8z"/>
	<linearGradient id="SVGID_5_" gradientUnits="userSpaceOnUse" x1="735.2447" y1="402.9642" x2="816.8336" y2="453.9466">
		<stop  offset="0.2032" style="stop-color:#EBEDEF"/>
		<stop  offset="0.8021" style="stop-color:#8B959A"/>
	</linearGradient>
	<path class="st4" d="M724.5,420.2c0,7.5-0.6,14.8-1.8,21.9h94.5c7.4-7.4,14.3-14.8,20.8-22H724.5
		C724.5,420.2,724.5,420.2,724.5,420.2z"/>
	<linearGradient id="SVGID_6_" gradientUnits="userSpaceOnUse" x1="731.3023" y1="348.867" x2="852.9145" y2="416.2777">
		<stop  offset="0.2246" style="stop-color:#EBEDEF"/>
		<stop  offset="0.8021" style="stop-color:#8B959A"/>
	</linearGradient>
	<path class="st5" d="M716.6,375.4c2.6,7.1,4.6,14.4,5.9,22h135.3c6.9-8.2,12.8-15.6,17.7-22H716.6z"/>
	<g>
		<g>
			<polygon points="680.3,452.3 666.9,452.3 665.2,394.4 678.6,394.4 			"/>
			<g>
				
					<image style="overflow:visible;" width="20.5" height="63.3" xlink:href="4E5F4F14.png"  transform="matrix(1 0 0 1 662.5081 391.6795)"/>
			</g>
		</g>
		<g>
			<polygon points="597.5,452.3 584.1,452.3 582.4,394.4 595.8,394.4 			"/>
			<g>
				
					<image style="overflow:visible;" width="20.5" height="63.3" xlink:href="4E5F4F15.png"  transform="matrix(1 0 0 1 579.6975 391.6795)"/>
			</g>
		</g>
		<g>
			<polygon points="642.1,394.4 643.1,429.4 618.7,394.4 607,394.4 608.7,452.3 620.4,452.3 619.4,417.3 643.8,452.3 655.5,452.3 
				653.8,394.4 			"/>
			<g>
				
					<image style="overflow:visible;" width="53.8" height="63.3" xlink:href="4E5F4F13.png"  transform="matrix(1 0 0 1 604.3169 391.6795)"/>
			</g>
		</g>
		<g>
			<polygon points="556.2,394.4 542.1,432.5 527.1,394.4 512.3,394.4 514,452.3 525.7,452.3 524.6,417.4 538,452.2 545.7,452.2 
				558.4,419.3 559.3,452.3 572.7,452.3 571,394.4 			"/>
			<g>
				
					<image style="overflow:visible;" width="65.8" height="63.3" xlink:href="4E5F4F1C.png"  transform="matrix(1 0 0 1 509.5697 391.6795)"/>
			</g>
		</g>
	</g>
	<g>
		<linearGradient id="SVGID_7_" gradientUnits="userSpaceOnUse" x1="671.2863" y1="449.9156" x2="671.2863" y2="391.9744">
			<stop  offset="0" style="stop-color:#A7A9AC"/>
			<stop  offset="1" style="stop-color:#F1F2F2"/>
		</linearGradient>
		<rect x="664.6" y="392" class="st6" width="13.4" height="57.9"/>
		<linearGradient id="SVGID_8_" gradientUnits="userSpaceOnUse" x1="588.4758" y1="449.9156" x2="588.4758" y2="391.9744">
			<stop  offset="0" style="stop-color:#A7A9AC"/>
			<stop  offset="1" style="stop-color:#F1F2F2"/>
		</linearGradient>
		<rect x="581.8" y="392" class="st7" width="13.4" height="57.9"/>
		<linearGradient id="SVGID_9_" gradientUnits="userSpaceOnUse" x1="629.7816" y1="449.9156" x2="629.7816" y2="391.9744">
			<stop  offset="0" style="stop-color:#A7A9AC"/>
			<stop  offset="1" style="stop-color:#F1F2F2"/>
		</linearGradient>
		<polygon class="st8" points="641.5,392 641.5,427 618.1,392 606.4,392 606.4,449.9 618.1,449.9 618.1,414.9 641.5,449.9 
			653.2,449.9 653.2,392 		"/>
		<linearGradient id="SVGID_10_" gradientUnits="userSpaceOnUse" x1="541.0275" y1="449.9156" x2="541.0275" y2="391.9744">
			<stop  offset="0" style="stop-color:#A7A9AC"/>
			<stop  offset="1" style="stop-color:#F1F2F2"/>
		</linearGradient>
		<polygon class="st9" points="555.6,392 540.4,430.1 526.5,392 511.7,392 511.7,449.9 523.3,449.9 523.3,415 535.7,449.8 
			543.4,449.8 557,416.9 557,449.9 570.4,449.9 570.4,392 		"/>
	</g>
	<linearGradient id="SVGID_11_" gradientUnits="userSpaceOnUse" x1="794.0706" y1="384.8152" x2="793.9828" y2="374.755">
		<stop  offset="0.2086" style="stop-color:#000000;stop-opacity:0"/>
		<stop  offset="0.8021" style="stop-color:#000000"/>
	</linearGradient>
	<path class="st10" d="M719.8,385.5l88.3-2c0,0,48.6-0.9,63.3-8.1H716.6L719.8,385.5z"/>
	<linearGradient id="SVGID_12_" gradientUnits="userSpaceOnUse" x1="780.5531" y1="429.4456" x2="780.4218" y2="419.4146">
		<stop  offset="0.246" style="stop-color:#000000;stop-opacity:0"/>
		<stop  offset="0.8289" style="stop-color:#000000"/>
	</linearGradient>
	<path class="st11" d="M724.5,430.2l48.7-1.4c0,0,48.6-1.5,63.3-8.7h-112V430.2z"/>
	<linearGradient id="SVGID_13_" gradientUnits="userSpaceOnUse" x1="752.2875" y1="472.8841" x2="752.1366" y2="464.2418">
		<stop  offset="0.246" style="stop-color:#000000;stop-opacity:0"/>
		<stop  offset="0.8289" style="stop-color:#000000"/>
	</linearGradient>
	<path class="st12" d="M713.3,473.6l14.5-0.7c0,0,48.6-0.9,63.3-8.1h-74.5L713.3,473.6z"/>
	<g>
		<polygon class="st13" points="853.5,398 722.7,398.6 722.5,397.4 854.4,397.4 		"/>
	</g>
	<g>
		<polygon class="st13" points="813.4,442.8 722.5,443.4 722.7,442.2 814.4,442.2 		"/>
	</g>
	<g>
		<polygon class="st13" points="761.4,487.3 706,487.9 706.7,486.7 763.1,486.7 		"/>
	</g>
	
		<linearGradient id="SVGID_14_" gradientUnits="userSpaceOnUse" x1="205.8259" y1="453.0161" x2="236.7129" y2="491.1584" gradientTransform="matrix(-1 0 0 1 664.8102 0)">
		<stop  offset="0.1872" style="stop-color:#EBEDEF"/>
		<stop  offset="0.8021" style="stop-color:#8B959A"/>
	</linearGradient>
	<path class="st14" d="M484.1,486.8h-61.3c-8.9-7.1-17.6-14.5-25.9-22h76.7C476.4,472.6,479.9,479.9,484.1,486.8z"/>
	
		<linearGradient id="SVGID_15_" gradientUnits="userSpaceOnUse" x1="209.7879" y1="402.9642" x2="291.3768" y2="453.9466" gradientTransform="matrix(-1 0 0 1 664.8102 0)">
		<stop  offset="0.2032" style="stop-color:#EBEDEF"/>
		<stop  offset="0.8021" style="stop-color:#8B959A"/>
	</linearGradient>
	<path class="st15" d="M465.8,420.2c0,7.5,0.6,14.8,1.8,21.9h-94.5c-7.4-7.4-14.3-14.8-20.8-22h113.4
		C465.8,420.2,465.8,420.2,465.8,420.2z"/>
	
		<linearGradient id="SVGID_16_" gradientUnits="userSpaceOnUse" x1="205.8455" y1="348.867" x2="327.4577" y2="416.2777" gradientTransform="matrix(-1 0 0 1 664.8102 0)">
		<stop  offset="0.2246" style="stop-color:#EBEDEF"/>
		<stop  offset="0.8021" style="stop-color:#8B959A"/>
	</linearGradient>
	<path class="st16" d="M473.7,375.4c-2.6,7.1-4.6,14.4-5.9,22H332.4c-6.9-8.2-12.8-15.6-17.7-22H473.7z"/>
	
		<linearGradient id="SVGID_17_" gradientUnits="userSpaceOnUse" x1="268.6138" y1="384.8152" x2="268.526" y2="374.755" gradientTransform="matrix(-1 0 0 1 664.8102 0)">
		<stop  offset="0.2086" style="stop-color:#000000;stop-opacity:0"/>
		<stop  offset="0.8021" style="stop-color:#000000"/>
	</linearGradient>
	<path class="st17" d="M470.5,385.5l-88.3-2c0,0-48.6-0.9-63.3-8.1h154.8L470.5,385.5z"/>
	
		<linearGradient id="SVGID_18_" gradientUnits="userSpaceOnUse" x1="255.0963" y1="429.4456" x2="254.965" y2="419.4146" gradientTransform="matrix(-1 0 0 1 664.8102 0)">
		<stop  offset="0.246" style="stop-color:#000000;stop-opacity:0"/>
		<stop  offset="0.8289" style="stop-color:#000000"/>
	</linearGradient>
	<path class="st18" d="M465.8,430.2l-48.7-1.4c0,0-48.6-1.5-63.3-8.7h112V430.2z"/>
	
		<linearGradient id="SVGID_19_" gradientUnits="userSpaceOnUse" x1="226.8307" y1="472.8841" x2="226.6798" y2="464.2418" gradientTransform="matrix(-1 0 0 1 664.8102 0)">
		<stop  offset="0.246" style="stop-color:#000000;stop-opacity:0"/>
		<stop  offset="0.8289" style="stop-color:#000000"/>
	</linearGradient>
	<path class="st19" d="M476.9,473.6l-14.5-0.7c0,0-48.6-0.9-63.3-8.1h74.5L476.9,473.6z"/>
	<g>
		<polygon class="st13" points="336.8,398 467.6,398.6 467.8,397.4 335.9,397.4 		"/>
	</g>
	<g>
		<polygon class="st13" points="376.8,442.8 467.8,443.4 467.6,442.2 375.9,442.2 		"/>
	</g>
	<g>
		<polygon class="st13" points="428.8,487.3 484.3,487.9 483.6,486.7 427.1,486.7 		"/>
	</g>
	<g>
		<path class="st20" d="M595.3,292.1c22.4,0,44.5,5.9,63.8,17c18.7,10.8,34.6,26.3,45.9,44.8l0.2,0.4h0.4h184.7
			c-3.6,5.3-19.1,27.1-42.7,54.2c-25,28.6-64.4,69.1-110.8,99.6h-46.5H690l-0.2,0.3c-11.9,13-26,23.2-42,30.4
			c-16.5,7.4-34.2,11.2-52.4,11.2s-35.9-3.8-52.4-11.2c-16-7.2-30.1-17.4-42-30.4l-0.2-0.3h-0.3h-46.5
			c-44.9-29.2-84.4-69.8-109.7-98.6c-24-27.4-40.1-49.8-43.8-55.1H485h0.4l0.2-0.4c11.3-18.5,27.1-34,45.9-44.8
			C550.8,298,572.9,292.1,595.3,292.1 M595.3,291.3c-46.7,0-87.6,24.9-110.3,62.2H298.8c0,0,67.6,98.6,154.8,155.3h46.7
			c23.6,25.7,57.4,41.8,95,41.8c37.6,0,71.4-16.1,95-41.8h46.7c90.1-59.2,154.8-155.3,154.8-155.3H705.6
			C683,316.2,642,291.3,595.3,291.3L595.3,291.3z"/>
	</g>
</g>
</svg>
